<svg width="412" height="412" viewBox="0 0 412 412" fill="none" xmlns="http://www.w3.org/2000/svg">
<rect width="412" height="412" fill="url(#paint0_linear_2508_958)"/>
<g filter="url(#filter0_d_2508_958)">
<rect x="106.995" y="59.1057" width="198.291" height="30.9829" fill="url(#paint1_linear_2508_958)"/>
<rect x="102.347" y="77.6956" width="207.585" height="30.9829" fill="url(#paint2_linear_2508_958)"/>
<path d="M306.58 96.2852C310.998 96.2852 314.58 99.8669 314.58 104.285V277.535L240.221 351.895H105.7C101.282 351.895 97.7004 348.313 97.7002 343.895V104.285C97.7002 99.8669 101.282 96.2852 105.7 96.2852H306.58Z" fill="url(#paint3_linear_2508_958)"/>
<path d="M240.221 277.535H314.58L240.221 351.894V277.535Z" fill="url(#paint4_linear_2508_958)"/>
<path opacity="0.05" d="M314.55 178.39L205.436 287.337L196.974 320.88C196.212 323.909 198.964 326.656 201.997 325.895L235.605 317.448L314.55 238.625V178.39Z" fill="black"/>
<path opacity="0.07" d="M314.549 183.233L211.2 286.426L207.446 293.393L201.51 316.92C200.83 319.606 203.267 322.031 205.957 321.36L229.607 315.413L236.511 311.693L314.549 233.617V183.233Z" fill="black"/>
<path d="M340.498 195.784L327.308 182.623C325.304 180.615 322.037 180.615 320.026 182.623L313.822 188.823L334.28 209.246L340.491 203.053C342.502 201.039 342.502 197.791 340.498 195.784Z" fill="#C94F60"/>
<path d="M211.626 290.843L204.743 318.138L232.091 311.267L234.96 287.589L211.626 290.843Z" fill="#F0F0F0"/>
<path d="M316.833 226.663L232.09 311.261L211.632 290.838L296.375 206.24L316.833 226.663Z" fill="#EDBE00"/>
<path d="M296.355 206.239L313.808 188.81L334.28 209.233L316.827 226.662L296.355 206.239Z" fill="url(#paint5_linear_2508_958)"/>
<path d="M208.229 304.335L204.743 318.14L218.565 314.66L208.229 304.335Z" fill="#787878"/>
<path d="M163.401 122.218L171.48 146.446L195.709 154.525C196.492 154.787 197.173 155.288 197.656 155.958C198.139 156.628 198.399 157.433 198.399 158.259C198.399 159.084 198.139 159.889 197.656 160.559C197.173 161.229 196.492 161.731 195.709 161.992L171.48 170.071L163.401 194.299C163.14 195.083 162.639 195.764 161.969 196.247C161.299 196.729 160.494 196.989 159.668 196.989C158.842 196.989 158.037 196.729 157.367 196.247C156.697 195.764 156.196 195.083 155.934 194.299L147.856 170.071L123.627 161.992C122.844 161.731 122.162 161.229 121.68 160.559C121.197 159.889 120.937 159.084 120.937 158.259C120.937 157.433 121.197 156.628 121.68 155.958C122.162 155.288 122.844 154.787 123.627 154.525L147.856 146.446L155.934 122.218C156.195 121.433 156.695 120.75 157.365 120.267C158.036 119.783 158.841 119.522 159.668 119.522C160.495 119.522 161.3 119.783 161.97 120.267C162.641 120.75 163.141 121.433 163.401 122.218Z" fill="#F9F9F9"/>
<path d="M222.325 198.61L227.174 213.141L241.705 217.99C242.175 218.147 242.584 218.448 242.874 218.851C243.164 219.253 243.32 219.737 243.32 220.232C243.32 220.728 243.164 221.212 242.874 221.614C242.584 222.017 242.175 222.318 241.705 222.475L227.174 227.324L222.325 241.855C222.168 242.325 221.867 242.734 221.464 243.024C221.062 243.314 220.579 243.47 220.083 243.47C219.587 243.47 219.103 243.314 218.701 243.024C218.299 242.734 217.997 242.325 217.84 241.855L212.991 227.324L198.461 222.475C197.99 222.318 197.581 222.017 197.291 221.614C197.001 221.212 196.845 220.728 196.845 220.232C196.845 219.737 197.001 219.253 197.291 218.851C197.581 218.448 197.99 218.147 198.461 217.99L212.991 213.141L217.84 198.61C217.996 198.139 218.297 197.728 218.699 197.437C219.102 197.146 219.586 196.99 220.083 196.99C220.579 196.99 221.064 197.146 221.466 197.437C221.869 197.728 222.169 198.139 222.325 198.61Z" fill="#F9F9F9"/>
<path d="M148.365 252.558L152.408 264.664L164.515 268.708C164.907 268.838 165.249 269.088 165.49 269.423C165.732 269.758 165.863 270.161 165.863 270.574C165.863 270.988 165.732 271.39 165.49 271.725C165.249 272.061 164.907 272.311 164.515 272.441L152.408 276.484L148.365 288.591C148.234 288.983 147.983 289.325 147.647 289.567C147.312 289.808 146.908 289.939 146.494 289.939C146.081 289.939 145.677 289.808 145.342 289.567C145.006 289.325 144.755 288.983 144.624 288.591L140.581 276.484L128.474 272.441C128.082 272.31 127.74 272.059 127.498 271.723C127.256 271.387 127.126 270.984 127.126 270.57C127.126 270.157 127.256 269.753 127.498 269.418C127.74 269.082 128.082 268.831 128.474 268.7L140.581 264.656L144.624 252.55C144.756 252.158 145.008 251.818 145.345 251.578C145.681 251.337 146.084 251.208 146.497 251.209C146.911 251.21 147.313 251.34 147.648 251.582C147.984 251.824 148.234 252.166 148.365 252.558Z" fill="#F9F9F9"/>
</g>
<defs>
<filter id="filter0_d_2508_958" x="85.7002" y="51.1057" width="268.3" height="316.789" filterUnits="userSpaceOnUse" color-interpolation-filters="sRGB">
<feFlood flood-opacity="0" result="BackgroundImageFix"/>
<feColorMatrix in="SourceAlpha" type="matrix" values="0 0 0 0 0 0 0 0 0 0 0 0 0 0 0 0 0 0 127 0" result="hardAlpha"/>
<feOffset dy="4"/>
<feGaussianBlur stdDeviation="6"/>
<feComposite in2="hardAlpha" operator="out"/>
<feColorMatrix type="matrix" values="0 0 0 0 0 0 0 0 0 0 0 0 0 0 0 0 0 0 0.16 0"/>
<feBlend mode="normal" in2="BackgroundImageFix" result="effect1_dropShadow_2508_958"/>
<feBlend mode="normal" in="SourceGraphic" in2="effect1_dropShadow_2508_958" result="shape"/>
</filter>
<linearGradient id="paint0_linear_2508_958" x1="0" y1="0" x2="0" y2="412" gradientUnits="userSpaceOnUse">
<stop stop-color="white"/>
<stop offset="1" stop-color="#ECECEC"/>
</linearGradient>
<linearGradient id="paint1_linear_2508_958" x1="206.14" y1="59.1057" x2="206.14" y2="90.0886" gradientUnits="userSpaceOnUse">
<stop stop-color="#0E62A9"/>
<stop offset="1" stop-color="#17538C"/>
</linearGradient>
<linearGradient id="paint2_linear_2508_958" x1="206.14" y1="77.6956" x2="206.14" y2="108.678" gradientUnits="userSpaceOnUse">
<stop stop-color="#199AE0"/>
<stop offset="1" stop-color="#0985D9"/>
</linearGradient>
<linearGradient id="paint3_linear_2508_958" x1="148.822" y1="96.2852" x2="198.395" y2="304.645" gradientUnits="userSpaceOnUse">
<stop stop-color="#4FCAF7"/>
<stop offset="1" stop-color="#1FA2E4"/>
</linearGradient>
<linearGradient id="paint4_linear_2508_958" x1="240.221" y1="277.535" x2="277.401" y2="314.715" gradientUnits="userSpaceOnUse">
<stop stop-color="#307AD6"/>
<stop offset="1" stop-color="#2A7CD3"/>
</linearGradient>
<linearGradient id="paint5_linear_2508_958" x1="315.318" y1="190.104" x2="315.318" y2="227.71" gradientUnits="userSpaceOnUse">
<stop stop-color="#DEDEDE"/>
<stop offset="1" stop-color="#D6D6D6"/>
</linearGradient>
</defs>
</svg>
