<svg width="603" height="59" viewBox="0 0 603 59" fill="none" xmlns="http://www.w3.org/2000/svg">
<path d="M15.28 56.5601C9.36 56.5601 4.32 55.4401 1.52 54.2401V42.8001H5.92L6.56 47.0401C8.32 48.6401 14.08 50.4801 19.76 50.4801C22.08 50.4801 23.6 50.0801 24.8 49.3601C26.56 48.3201 27.2 46.7201 27.2 42.9601C27.2 36.6401 24.48 35.8401 19.2 35.1201L15.68 34.6401C5.92 33.2801 -2.32458e-06 32.0801 -2.32458e-06 21.5201C-2.32458e-06 14.16 1.76 11.1201 8.32 7.04005C13.12 4.00005 16.48 2.80005 23.2 2.80005C28.4 2.80005 32.64 3.76005 35.6 4.80005V15.6801H31.2L30.72 11.6801C28.32 10.2401 23.52 8.88005 18.8 8.88005C16.48 8.88005 14.96 9.28005 13.76 10.0001C12.08 11.0401 11.44 12.64 11.44 16.4001C11.44 22.7201 14.16 23.5201 19.36 24.2401L22.88 24.7201C32.64 26.0801 38.64 27.2801 38.64 37.8401C38.64 45.2001 36.8 48.2401 30.32 52.3201C25.52 55.3601 22.16 56.5601 15.28 56.5601ZM87.2325 55.6801L75.1525 56.4001L74.7525 56.3201C73.8725 55.2801 72.9925 53.3601 72.5125 50.9601C68.8325 54.0001 64.3525 56.1601 58.9925 56.1601C50.4325 56.1601 47.3925 52.2401 47.3925 44.4001V25.2001L43.8725 24.6401V20.8001L58.4325 20.1601L58.5925 20.3201V42.4001C58.5925 47.2001 61.6325 48.9601 66.2725 48.9601C68.1925 48.9601 69.7125 48.4801 70.5125 47.6801C71.3925 46.8001 71.6325 45.6801 71.6325 42.6401V20.4801H83.0725V45.6001C83.0725 50.8001 83.9525 51.6001 87.2325 52.0001V55.6801ZM109.942 55.6801C106.662 55.6801 102.902 55.4401 100.182 55.2001L97.3819 58.6401L93.7819 57.6001C94.3419 53.0401 94.4219 49.8401 94.4219 40.0801V15.7601C94.4219 8.88005 94.2619 6.08005 94.0219 4.64005L90.3419 4.32005V0.480049L105.862 5.05447e-05L106.022 0.0800495C105.782 4.64005 105.702 8.96005 105.702 16.8001V24.4801C108.662 21.9201 111.382 20.4001 116.342 20.4001C126.342 20.4001 131.542 25.2801 131.542 35.8401C131.542 44.8001 129.702 47.0401 123.702 51.1201C118.822 54.4001 115.382 55.6801 109.942 55.6801ZM105.702 41.8401C105.702 44.7201 105.782 46.8801 105.862 48.4801C108.982 49.4401 111.382 49.8401 113.622 49.8401C115.862 49.8401 117.222 49.4401 118.262 48.4801C119.542 47.2801 120.022 45.2001 120.022 39.8401V37.9201C120.022 30.0001 117.542 27.0401 111.782 27.0401C108.902 27.0401 107.302 27.5201 105.702 28.7201V41.8401ZM151.654 56.4001C148.214 56.4001 145.014 55.5201 143.014 53.5201C141.494 52.0001 140.694 50.4001 140.694 47.2801V26.0001H135.574V21.1201H140.694V11.6801L151.974 11.2V21.1201H162.294L162.374 21.2801L161.174 26.2401L151.974 26.0001V45.1201C151.974 46.5601 152.214 47.5201 153.094 48.4001C154.054 49.3601 155.414 49.7601 157.254 49.7601C158.774 49.7601 160.374 49.2001 162.054 48.0801L163.574 49.9201C160.694 53.6801 157.174 56.4001 151.654 56.4001ZM174.064 14.2401C170.864 14.2401 168.864 10.9601 168.864 8.96005C168.864 6.32005 173.824 3.84005 176.784 3.84005C179.824 3.84005 180.784 7.28005 180.784 9.28005C180.784 12.4001 177.104 14.2401 174.064 14.2401ZM166.224 55.6801V51.6801L169.984 51.3601C170.224 49.7601 170.304 47.3601 170.304 41.0401V35.2801C170.304 28.7201 170.144 26.0801 169.904 24.5601L165.984 24.3201V20.4801L181.744 20.0001L181.904 20.0801C181.664 24.3201 181.584 28.4801 181.584 36.0001V40.8001C181.584 47.5201 181.744 49.8401 181.904 51.3601L185.744 51.6801V55.6801H166.224ZM204.936 56.4001C201.496 56.4001 198.296 55.5201 196.296 53.5201C194.776 52.0001 193.976 50.4001 193.976 47.2801V26.0001H188.856V21.1201H193.976V11.6801L205.256 11.2V21.1201H215.576L215.656 21.2801L214.456 26.2401L205.256 26.0001V45.1201C205.256 46.5601 205.496 47.5201 206.376 48.4001C207.336 49.3601 208.696 49.7601 210.536 49.7601C212.056 49.7601 213.656 49.2001 215.336 48.0801L216.856 49.9201C213.976 53.6801 210.456 56.4001 204.936 56.4001ZM219.345 55.6801V51.6801L223.185 51.3601C223.345 49.6801 223.505 47.2801 223.505 40.8001V15.7601C223.505 8.88005 223.265 6.08005 223.105 4.64005L219.025 4.32005V0.480049L234.865 5.05447e-05L235.025 0.0800495C234.785 4.64005 234.785 8.96005 234.785 16.8001V41.2801C234.785 47.7601 234.865 49.9201 235.105 51.3601L238.865 51.6801V55.6801H219.345ZM276.533 51.9201C273.173 54.4001 268.293 56.4001 262.293 56.4001C255.813 56.4001 251.333 55.0401 248.213 51.9201C245.093 48.8001 243.973 44.8801 243.973 39.2801C243.973 29.5201 247.573 26.0001 254.373 22.3201C257.573 20.5601 260.373 19.7601 264.693 19.7601C273.893 19.7601 278.373 24.2401 278.373 31.3601C278.373 33.2801 278.213 35.2801 277.973 36.7201L269.653 40.5601L255.333 40.4001C256.053 47.6001 260.053 50.0001 268.373 50.0001C271.413 50.0001 274.533 49.3601 277.253 48.2401L277.493 48.4001L276.533 51.9201ZM257.333 26.1601C255.653 27.1201 255.173 29.1201 255.173 34.0001V35.6801L267.653 35.4401C267.733 34.8001 267.813 33.6001 267.813 32.5601C267.813 27.6801 265.493 25.3601 260.773 25.3601C259.173 25.3601 258.293 25.6001 257.333 26.1601ZM305.984 51.4401V55.6801H283.504V51.4401L288.144 51.1201C288.464 49.4401 288.624 45.5201 288.624 35.5201V25.7601C288.624 14.2401 288.384 10.2401 288.064 8.24005L283.504 7.92005V3.68005H312.464C323.264 3.68005 328.464 7.76005 328.464 16.7201C328.464 25.1201 324.224 28.7201 317.104 30.4801C320.624 31.7601 322.624 34.8001 325.744 41.4401L328.384 47.0401C329.984 50.4001 330.864 50.8001 333.344 51.0401V55.6801H320.224C318.944 55.2801 317.904 53.6001 316.464 50.3201L313.264 43.0401C309.584 34.7201 307.904 33.3601 303.824 33.3601C302.624 33.3601 301.424 33.4401 300.544 33.4401V37.0401C300.544 46.3201 300.784 49.6801 301.104 51.1201L305.984 51.4401ZM300.544 22.4801V28.3201C303.024 28.4801 305.264 28.5601 307.024 28.5601C313.344 28.5601 316.064 25.9201 316.064 19.1201V17.9201C316.064 11.2 312.864 8.48005 302.864 8.48005H300.944C300.784 10.3201 300.544 13.8401 300.544 22.4801ZM369.658 51.9201C366.298 54.4001 361.418 56.4001 355.418 56.4001C348.938 56.4001 344.458 55.0401 341.338 51.9201C338.218 48.8001 337.098 44.8801 337.098 39.2801C337.098 29.5201 340.698 26.0001 347.498 22.3201C350.698 20.5601 353.498 19.7601 357.818 19.7601C367.018 19.7601 371.498 24.2401 371.498 31.3601C371.498 33.2801 371.338 35.2801 371.098 36.7201L362.778 40.5601L348.458 40.4001C349.178 47.6001 353.178 50.0001 361.498 50.0001C364.538 50.0001 367.658 49.3601 370.378 48.2401L370.618 48.4001L369.658 51.9201ZM350.458 26.1601C348.778 27.1201 348.298 29.1201 348.298 34.0001V35.6801L360.778 35.4401C360.858 34.8001 360.938 33.6001 360.938 32.5601C360.938 27.6801 358.618 25.3601 353.898 25.3601C352.298 25.3601 351.418 25.6001 350.458 26.1601ZM395.184 51.6801V55.6801H376.064V51.6801L379.504 51.3601C379.744 49.6801 379.824 46.7201 379.824 40.8001V36.0801C379.824 30.0801 379.744 26.8801 379.504 25.3601L375.904 24.8801V21.3601L390.144 19.6001L390.304 19.6801L390.064 26.0001C394.144 22.1601 396.784 20.0001 403.184 20.0001C412.544 20.0001 416.624 23.5201 416.624 35.2001V44.0801C416.624 46.4001 416.704 50.2401 416.784 51.1201L420.064 51.6801V55.6801H401.104V51.6801L404.704 51.2801C405.104 49.8401 405.344 46.4001 405.344 41.3601V34.8001C405.344 28.3201 402.784 26.8801 397.344 26.8801C393.104 26.8801 391.104 29.1201 391.104 33.5201V41.7601C391.104 47.1201 391.264 49.9201 391.424 51.2801L395.184 51.6801ZM459.876 55.6801L449.076 56.8801H448.676C447.556 56.2401 446.276 54.4001 445.636 52.0801C443.316 54.4801 440.996 56.1601 435.156 56.1601C427.316 56.1601 423.796 53.2001 423.796 47.1201C423.796 43.1201 424.996 40.8001 428.276 38.8001C431.796 36.5601 437.636 34.9601 444.676 34.7201V32.3201C444.676 27.2001 442.676 25.8401 438.036 25.8401C433.956 25.8401 430.756 27.1201 427.476 29.2001H427.316V23.3601C431.716 21.2001 436.996 19.9201 442.356 19.9201C452.116 19.9201 455.876 23.0401 455.876 31.1201C455.876 34.7201 455.636 42.0801 455.636 46.0001C455.636 50.5601 456.676 51.6001 459.876 52.1601V55.6801ZM434.996 45.2801C434.996 48.5601 436.676 50.2401 440.436 50.2401C443.076 50.2401 444.436 48.8801 444.516 46.4801L444.676 40.4001C443.076 39.9201 441.476 39.7601 440.116 39.7601C436.276 39.7601 434.996 40.9601 434.996 44.6401V45.2801ZM482.52 51.6801V55.6801H463.72V51.6801L467.16 51.3601C467.4 49.6801 467.48 46.7201 467.48 40.8001V36.0001C467.48 29.8401 467.32 26.6401 467.08 25.3601L463.48 24.9601V21.2801L477.32 19.6001L477.48 19.6801L478.04 25.2801C482.2 21.7601 485.16 20.0001 490.76 20.0001C495.8 20.0001 499 21.3601 501.96 25.5201C506.12 21.8401 508.76 20.0001 514.68 20.0001C523.88 20.0001 527.24 23.7601 527.24 34.9601V44.6401C527.24 46.9601 527.32 50.4001 527.4 51.2801L530.6 51.6801V55.6801H511.8V51.6801L515.4 51.2801C515.72 50.4801 515.96 48.1601 515.96 42.9601V35.6801C515.96 28.5601 513.72 26.8801 508.84 26.8801C506.52 26.8801 504.76 27.6001 503.32 28.8801C503.16 30.6401 503 33.2801 503 36.2401V42.0801C503 47.2001 503.16 49.9201 503.32 51.3601L506.84 51.6801V55.6801H487.88V51.6801L491.4 51.3601C491.64 49.9201 491.72 47.2001 491.72 41.6001V35.0401C491.72 28.6401 489.88 26.8801 484.68 26.8801C482.44 26.8801 480.68 27.6001 479.08 28.8801C478.92 30.5601 478.76 33.2001 478.76 36.2401V41.8401C478.76 47.2001 478.92 49.9201 479.08 51.3601L482.52 51.6801ZM568.33 51.9201C564.97 54.4001 560.09 56.4001 554.09 56.4001C547.61 56.4001 543.13 55.0401 540.01 51.9201C536.89 48.8001 535.77 44.8801 535.77 39.2801C535.77 29.5201 539.37 26.0001 546.17 22.3201C549.37 20.5601 552.17 19.7601 556.49 19.7601C565.69 19.7601 570.17 24.2401 570.17 31.3601C570.17 33.2801 570.01 35.2801 569.77 36.7201L561.45 40.5601L547.13 40.4001C547.85 47.6001 551.85 50.0001 560.17 50.0001C563.21 50.0001 566.33 49.3601 569.05 48.2401L569.29 48.4001L568.33 51.9201ZM549.13 26.1601C547.45 27.1201 546.97 29.1201 546.97 34.0001V35.6801L559.45 35.4401C559.53 34.8001 559.61 33.6001 559.61 32.5601C559.61 27.6801 557.29 25.3601 552.57 25.3601C550.97 25.3601 550.09 25.6001 549.13 26.1601ZM595.616 51.5201V55.6801H574.736V51.6801L578.176 51.3601C578.416 49.6801 578.496 46.7201 578.496 40.8001V36.0801C578.496 30.0801 578.336 26.8801 578.096 25.3601L574.576 24.8801V21.3601L588.656 19.5201L588.816 19.6001V29.0401C592.336 22.1601 593.696 20.1601 599.136 20.1601C600.496 20.1601 601.936 20.3201 602.736 20.4801L602.816 20.7201L602.576 28.8801L602.416 29.0401C602.016 29.2801 601.456 29.4401 600.336 29.4401C598.496 29.4401 596.896 29.2801 595.296 29.2801C593.856 29.2801 592.896 29.7601 592.016 30.6401C590.736 31.9201 589.776 33.8401 589.776 37.6801V42.9601C589.776 47.0401 590.016 50.2401 590.256 51.2001L595.616 51.5201Z" fill="url(#paint0_linear_37_175)"/>
<defs>
<linearGradient id="paint0_linear_37_175" x1="300.56" y1="-21.3199" x2="300.56" y2="78.6801" gradientUnits="userSpaceOnUse">
<stop stop-color="#4DC9F6"/>
<stop offset="1" stop-color="#20A4E5"/>
</linearGradient>
</defs>
</svg>
